<?xml version="1.0" encoding="UTF-8"?>
<svg xmlns="http://www.w3.org/2000/svg" xmlns:xlink="http://www.w3.org/1999/xlink" width="15pt" height="15pt" viewBox="0 0 15 15" version="1.1">
<g id="surface1">
<path style=" stroke:none;fill-rule:nonzero;fill:rgb(0%,0%,0%);fill-opacity:1;" d="M 7.871094 8.535156 L 7.171875 7.988281 C 6.957031 7.8125 6.667969 7.578125 6.667969 7.152344 C 6.667969 6.722656 6.957031 6.449219 7.210938 6.195312 C 8.027344 5.554688 8.84375 4.867188 8.84375 3.425781 C 8.84375 1.945312 7.910156 1.164062 7.464844 0.792969 L 8.667969 0.792969 L 9.933594 0 L 6.101562 0 C 5.050781 0 3.535156 0.25 2.425781 1.164062 C 1.589844 1.886719 1.179688 2.882812 1.179688 3.777344 C 1.179688 5.296875 2.347656 6.839844 4.410156 6.839844 C 4.605469 6.839844 4.816406 6.820312 5.03125 6.800781 C 4.933594 7.035156 4.835938 7.230469 4.835938 7.558594 C 4.835938 8.164062 5.148438 8.535156 5.421875 8.886719 C 4.546875 8.945312 2.910156 9.042969 1.703125 9.78125 C 0.558594 10.464844 0.207031 11.460938 0.207031 12.160156 C 0.207031 13.605469 1.566406 14.949219 4.390625 14.949219 C 7.734375 14.949219 9.507812 13.097656 9.507812 11.265625 C 9.507812 9.917969 8.730469 9.253906 7.871094 8.535156 Z M 5.324219 6.292969 C 3.652344 6.292969 2.890625 4.128906 2.890625 2.824219 C 2.890625 2.316406 2.988281 1.789062 3.320312 1.378906 C 3.632812 0.988281 4.175781 0.738281 4.683594 0.738281 C 6.296875 0.738281 7.132812 2.917969 7.132812 4.324219 C 7.132812 4.675781 7.09375 5.296875 6.648438 5.746094 C 6.335938 6.058594 5.808594 6.292969 5.324219 6.292969 Z M 5.34375 14.132812 C 3.261719 14.132812 1.921875 13.136719 1.921875 11.75 C 1.921875 10.367188 3.164062 9.898438 3.59375 9.746094 C 4.410156 9.46875 5.460938 9.433594 5.636719 9.433594 C 5.828125 9.433594 5.925781 9.433594 6.082031 9.453125 C 7.5625 10.503906 8.203125 11.027344 8.203125 12.027344 C 8.203125 13.234375 7.210938 14.132812 5.34375 14.132812 Z M 5.34375 14.132812 "/>
<path style=" stroke:none;fill-rule:nonzero;fill:rgb(0%,0%,0%);fill-opacity:1;" d="M 12.785156 6.261719 L 12.785156 4.3125 L 11.824219 4.3125 L 11.824219 6.261719 L 9.875 6.261719 L 9.875 7.234375 L 11.824219 7.234375 L 11.824219 9.199219 L 12.785156 9.199219 L 12.785156 7.234375 L 14.742188 7.234375 L 14.742188 6.261719 Z M 12.785156 6.261719 "/>
</g>
</svg>
