<?xml version="1.0" encoding="utf-8"?>
<!-- Generator: Adobe Illustrator 23.0.5, SVG Export Plug-In . SVG Version: 6.00 Build 0)  -->
<svg version="1.1" id="Слой_1" xmlns="http://www.w3.org/2000/svg" xmlns:xlink="http://www.w3.org/1999/xlink" x="0px" y="0px"
	 viewBox="0 0 15 15" style="enable-background:new 0 0 15 15;" xml:space="preserve">
<style type="text/css">
	.st0{fill:#00BC9C;stroke:#00BC9C;stroke-miterlimit:10;}
</style>
<g id="surface1">
	<path class="st0" d="M7.9,8.5L7.2,8C7,7.8,6.7,7.6,6.7,7.2s0.3-0.7,0.5-1C8,5.6,8.8,4.9,8.8,3.4S7.9,1.1,7.4,0.8h1.2L9.9,0H6.1
		c-1,0-2.6,0.3-3.7,1.2C1.6,1.9,1.2,2.9,1.2,3.8c0,1.5,1.2,3.1,3.2,3.1c0.2,0,0.4,0,0.6,0C4.9,7,4.8,7.2,4.8,7.6
		c0,0.6,0.3,1,0.6,1.3C4.5,8.9,2.9,9,1.7,9.8c-1.1,0.7-1.5,1.7-1.5,2.4c0,1.4,1.4,2.8,4.2,2.8c3.3,0,5.1-1.9,5.1-3.7
		C9.5,9.9,8.7,9.3,7.9,8.5z M5.3,6.3c-1.7,0-2.4-2.2-2.4-3.5c0-0.5,0.1-1,0.4-1.4C3.6,1,4.2,0.7,4.7,0.7c1.6,0,2.4,2.2,2.4,3.6
		c0,0.4,0,1-0.5,1.4C6.3,6.1,5.8,6.3,5.3,6.3z M5.3,14.1c-2.1,0-3.4-1-3.4-2.4s1.2-1.9,1.7-2c0.8-0.3,1.9-0.3,2-0.3
		c0.2,0,0.3,0,0.4,0C7.6,10.5,8.2,11,8.2,12C8.2,13.2,7.2,14.1,5.3,14.1z"/>
	<path class="st0" d="M12.8,6.3v-2h-1v1.9H9.9v1h1.9v2h1v-2h2v-1L12.8,6.3L12.8,6.3z"/>
</g>
</svg>
